# xmcd
#
# Track frame offsets:
#	150
#	26957
#	53767
#	74927
#	94170
#	117687
#	147497
#	178610
#	202412
#	221450
#	243347
#
# Disc length: 3604 seconds
#
# Revision: 2
# Processed by: cddbd v1.5.2PL0 Copyright (c) Steve Scherf et al.
# Submitted via: audiograbber 1.83.01
#
DISCID=ba0e120b
DTITLE=Millie Jackson - The Very Best Of Millie Jackson
DYEAR=1994
DGENRE=Blues
TTITLE0=Hot! Wild! Unrestricted! Crazy Love
TTITLE1=Love Is A Dangerous Game
TTITLE2=Something You Can Feel
TTITLE3=You Knocked The Love (Right Outta My Heart)
TTITLE4=It's A Thang
TTITLE5=Young Man, Older Woman
TTITLE6=When Are You Gonna Tell Your Woman (About Me)?
TTITLE7=The Tide Is Turning
TTITLE8=An Imitation Of Love
TTITLE9=Are You That Someone?
TTITLE10=Will You Love Me Tomorrow (Live)
EXTD=
EXTT0=
EXTT1=
EXTT2=
EXTT3=
EXTT4=
EXTT5=
EXTT6=
EXTT7=
EXTT8=
EXTT9=
EXTT10=
PLAYORDER=
